# xmcd
#
# Track frame offsets:
#	150
#	31050
#	80135
#	128267
#	203380
#
# Disc length: 3102 seconds
#
# Revision: 1
# Processed by: cddbd v1.5.2PL0 Copyright (c) Steve Scherf et al.
# Submitted via: audiograbber 1.83.01
#
DISCID=2e0c1c05
DTITLE=Kenny Rogers - Christmas Radio Special The Gift
DYEAR=1996
DGENRE=Christmas
TTITLE0=The Gift
TTITLE1=Daddy Was Full of Surprises at Christmas Time
TTITLE2=The Vocal Stype of Glad Makes a Song Sing
TTITLE3=The Children Ask About Christmas
TTITLE4=Till The Season Comes Round Again
EXTD=
EXTT0=
EXTT1=
EXTT2=
EXTT3=
EXTT4=
PLAYORDER=
